<?xml version="1.0" encoding="UTF-8"?> <svg xmlns="http://www.w3.org/2000/svg" xmlns:xlink="http://www.w3.org/1999/xlink" width="1487px" height="510px" viewBox="0 0 1487 510"> <!-- Generator: Sketch 49.3 (51167) - http://www.bohemiancoding.com/sketch --> <title>App Store RU</title> <desc>Created with Sketch.</desc> <defs></defs> <g id="Page-1" stroke="none" stroke-width="1" fill="none" fill-rule="evenodd"> <g id="App-Store-RU" transform="translate(5.000000, 5.000000)"> <rect id="background" stroke="#FFFFFF" stroke-width="10" fill="#000000" fill-rule="nonzero" x="0" y="0" width="1477" height="500" rx="60"></rect> <g id="icon" transform="translate(130.000000, 88.000000)" fill="#FFFFFF" fill-rule="nonzero"> <path d="M193.340766,150.55423 C193.018956,114.788858 222.625537,97.3888881 223.979361,96.5788129 C207.211916,72.132299 181.22293,68.7921262 172.090165,68.5258002 C150.262524,66.2287378 129.089602,81.5868745 117.970488,81.5868745 C106.629437,81.5868745 89.5068896,68.7477385 71.0527122,69.1250338 C47.3053043,69.4912322 25.0892712,83.2403156 12.9048535,104.590789 C-12.2407663,148.124005 6.5130278,212.097746 30.6044403,247.286078 C42.655695,264.530691 56.737686,283.761653 75.1696694,283.084741 C93.2021638,282.352344 99.937994,271.588332 121.699053,271.588332 C143.260368,271.588332 149.585612,283.084741 168.383794,282.640864 C187.736822,282.352344 199.92124,265.340766 211.550811,247.940796 C225.477446,228.210473 231.070293,208.735379 231.292231,207.736657 C230.848355,207.592397 193.718062,193.42163 193.340766,150.55423" id="Fill-2"></path> <path d="M157.830624,45.3776258 C167.529331,33.2486927 174.165289,16.7475733 172.323201,0.00232156273 C158.285597,0.623749061 140.73027,9.71212622 130.620977,21.5747333 C121.67686,32.0280316 113.687077,49.1616754 115.751104,65.2744027 C131.519827,66.4506762 147.710233,57.3179113 157.830624,45.3776258" id="Fill-3"></path> </g> <g id="Group" transform="translate(459.000000, 218.000000)" fill="#FFFFFF" fill-rule="nonzero"> <path d="M125.528963,150.610128 L100.327859,150.610128 L86.5232908,107.232269 L38.5402104,107.232269 L25.3903606,150.610128 L0.855071375,150.610128 L48.4053719,2.93232156 L77.7678212,2.93232156 L125.528963,150.610128 Z M82.3619459,89.0333208 L69.8779113,50.4826221 C68.5573779,46.5321187 66.0716679,37.2550939 62.4318783,22.6515477 L61.9880015,22.6515477 C60.5232081,28.9324042 58.1817581,38.209429 54.9747483,50.4826221 L42.7015552,89.0333208 L82.3619459,89.0333208 Z" id="Fill-4"></path> <path d="M247.572885,96.0576709 C247.572885,114.167844 242.65695,128.48287 232.813982,138.991653 C224.003028,148.346356 213.050368,153.018159 199.989294,153.018159 C185.885109,153.018159 175.742524,147.991255 169.583734,137.904155 L169.583734,193.777145 L145.925101,193.777145 L145.925101,79.1237716 C145.925101,67.749429 145.625485,56.0865665 145.048445,44.1240872 L165.855169,44.1240872 L167.175702,61.0135988 L167.619579,61.0135988 C175.509489,48.285432 187.483065,41.9268971 203.551405,41.9268971 C216.113118,41.9268971 226.599707,46.8872201 234.988978,56.8189632 C243.367153,66.7729001 247.572885,79.8450714 247.572885,96.0576709 Z M223.470376,96.9232307 C223.470376,86.5587077 221.140023,78.0140796 216.457122,71.2893464 C211.341443,64.2871901 204.472449,60.7694666 195.86124,60.7694666 C190.02426,60.7694666 184.719932,62.7225244 179.981548,66.5842524 C175.232066,70.4570774 172.124929,75.5283696 170.671232,81.8203231 C169.938835,84.7388129 169.572637,87.1246506 169.572637,89.011127 L169.572637,106.788392 C169.572637,114.511848 171.947378,121.047934 176.69686,126.396649 C181.446341,131.723171 187.616228,134.397528 195.206521,134.397528 C204.117348,134.397528 211.052923,130.946386 216.013246,124.099587 C220.984666,117.230594 223.470376,108.175507 223.470376,96.9232307 Z" id="Fill-5"></path> <path d="M370.049587,96.0576709 C370.049587,114.167844 365.133651,128.48287 355.290684,138.991653 C346.468633,148.346356 335.52707,153.018159 322.454899,153.018159 C308.361811,153.018159 298.219226,147.991255 292.049339,137.904155 L292.049339,193.777145 L268.390706,193.777145 L268.390706,79.1237716 C268.390706,67.749429 268.091089,56.0865665 267.51405,44.1240872 L288.320774,44.1240872 L289.641307,61.0135988 L290.085184,61.0135988 C297.963997,48.285432 309.937573,41.9268971 326.01701,41.9268971 C338.567626,41.9268971 349.065312,46.8872201 357.46568,56.8189632 C365.832757,66.7729001 370.049587,79.8450714 370.049587,96.0576709 Z M345.93598,96.9232307 C345.93598,86.5587077 343.59453,78.0140796 338.91163,71.2893464 C333.807047,64.2871901 326.949151,60.7694666 318.337941,60.7694666 C312.500962,60.7694666 307.196634,62.7225244 302.436056,66.5842524 C297.697671,70.4570774 294.590533,75.5283696 293.136837,81.8203231 C292.415537,84.7388129 292.027145,87.1246506 292.027145,89.011127 L292.027145,106.788392 C292.027145,114.511848 294.412983,121.047934 299.14027,126.396649 C303.889752,131.712074 310.059639,134.397528 317.672126,134.397528 C326.59405,134.397528 333.529624,130.946386 338.47885,124.099587 C343.45027,117.230594 345.93598,108.175507 345.93598,96.9232307 Z" id="Fill-6"></path> <path d="M506.985575,109.196424 C506.985575,121.758137 502.602292,131.9784 493.857919,139.86831 C484.247986,148.479519 470.831811,152.796221 453.631585,152.796221 C437.740796,152.796221 425.001533,149.733471 415.3916,143.596875 L420.862382,123.877648 C431.238002,130.014245 442.634538,133.088092 455.040894,133.088092 C463.962817,133.088092 470.898392,131.068452 475.847618,127.062464 C480.819038,123.034282 483.315845,117.67447 483.315845,110.971931 C483.315845,104.968497 481.251818,99.9304959 477.168152,95.8357325 C473.073388,91.763163 466.304267,87.9458227 456.805304,84.4613899 C430.949482,74.8181668 418.010473,60.702885 418.010473,42.1599324 C418.010473,30.0420962 422.582404,20.12145 431.692975,12.3647032 C440.814643,4.61905334 452.910285,0.7462284 467.957708,0.7462284 C481.396078,0.7462284 492.59287,3.08767844 501.481503,7.75948159 L495.544651,27.0459279 C487.177573,22.5183847 477.734095,20.2546131 467.169827,20.2546131 C458.824944,20.2546131 452.266664,22.3075432 447.594861,26.3912096 C443.655455,30.0420962 441.646912,34.4919609 441.646912,39.7740947 C441.646912,45.5999775 443.921781,50.4382344 448.460421,54.222284 C452.38873,57.7289106 459.55734,61.535154 469.921863,65.6188204 C482.638933,70.7455973 491.971443,76.71574 497.963779,83.5736364 C503.989406,90.4315327 506.985575,98.9872577 506.985575,109.196424" id="Fill-7"></path> <path d="M585.407506,61.8791585 L559.329745,61.8791585 L559.329745,113.579707 C559.329745,126.729557 563.923869,133.287836 573.134313,133.287836 C577.362239,133.287836 580.868866,132.932735 583.643095,132.189241 L584.297814,150.155154 C579.637107,151.89737 573.500511,152.774027 565.910218,152.774027 C556.555515,152.774027 549.264838,149.911022 543.982705,144.218302 C538.722765,138.514485 536.092795,128.960038 536.092795,115.510571 L536.092795,61.8347708 L520.568204,61.8347708 L520.568204,44.0796995 L536.092795,44.0796995 L536.092795,24.5824117 L559.329745,17.5691585 L559.329745,44.0796995 L585.407506,44.0796995 L585.407506,61.8791585" id="Fill-8"></path> <path d="M702.835109,96.4904508 C702.835109,112.858407 698.163306,126.296777 688.808603,136.80556 C679.032216,147.613959 666.026627,153.018159 649.814027,153.018159 C634.16737,153.018159 621.727724,147.835898 612.450699,137.471375 C603.173674,127.106852 598.535162,114.034681 598.535162,98.2659579 C598.535162,81.7648385 603.340128,68.2487904 612.883479,57.7400075 C622.449023,47.2312246 635.343644,41.9601878 651.556243,41.9601878 C667.191803,41.9601878 679.731322,47.1646431 689.241382,57.5180691 C698.318663,67.5829752 702.835109,80.5552742 702.835109,96.4904508 Z M678.310917,97.0341998 C678.310917,87.2800075 676.202502,78.9129301 671.974576,71.9107739 C667.014252,63.4549211 659.901127,59.2380917 650.712878,59.2380917 C641.247205,59.2380917 633.956529,63.4549211 629.0184,71.9107739 C624.768279,78.9129301 622.670962,87.4242675 622.670962,97.4780766 C622.670962,107.243366 624.768279,115.632637 629.0184,122.601503 C634.13408,131.068452 641.269399,135.296379 650.52423,135.296379 C659.557122,135.296379 666.648054,130.96858 671.785928,122.401758 C676.124823,115.233148 678.310917,106.810586 678.310917,97.0341998 Z" id="Fill-9"></path> <path d="M779.770053,64.9308114 C777.428603,64.4980316 774.920699,64.2871901 772.312923,64.2871901 C763.990233,64.2871901 757.55402,67.4054245 753.026476,73.7084748 C749.08707,79.2569346 747.122915,86.2701878 747.122915,94.7371375 L747.122915,150.610128 L723.464282,150.610128 L723.464282,77.6589782 C723.464282,65.396882 723.231247,54.2000902 722.776273,44.1351841 L743.383253,44.1351841 L744.248813,64.5091285 L744.903531,64.5091285 C747.411435,57.5069722 751.339745,51.8586401 756.732847,47.6418107 C762.014981,43.8244703 767.696604,41.9268971 773.833201,41.9268971 C776.019294,41.9268971 777.994545,42.0933509 779.747859,42.3596769 L779.770053,64.9308114" id="Fill-10"></path> <path d="M885.579181,92.3291059 C885.579181,96.5681292 885.301758,100.141337 884.713621,103.059827 L813.74882,103.059827 C814.00405,113.579707 817.455192,121.636071 824.035665,127.18453 C830.016905,132.133757 837.762554,134.619467 847.250421,134.619467 C857.759204,134.619467 867.346942,132.954929 875.969249,129.581465 L879.67562,146.004906 C869.599617,150.388189 857.692622,152.585379 843.976829,152.585379 C827.464613,152.585379 814.503411,147.724929 805.071029,138.026221 C795.671938,128.316416 790.944651,115.255342 790.944651,98.9206762 C790.944651,82.8745304 795.316837,69.5027423 804.105597,58.8386026 C813.293847,47.453163 825.7113,41.7604433 841.335763,41.7604433 C856.682802,41.7604433 868.301277,47.453163 876.18009,58.8386026 C882.438753,67.8603982 885.579181,79.0460932 885.579181,92.3291059 Z M863.019144,86.1925094 C863.185597,79.1681593 861.632029,73.131435 858.425019,68.0046582 C854.330255,61.4130879 848.027205,58.1283997 839.582449,58.1283997 C831.836799,58.1283997 825.544846,61.3354095 820.750977,67.7716228 C816.81157,72.8873028 814.47012,79.0460932 813.74882,86.1703156 L863.019144,86.1925094 Z" id="Fill-11"></path> </g> <text id="Доступно" fill="#FFFFFF" font-family="Roboto-Regular, Roboto" font-size="110" font-weight="normal"> <tspan x="459" y="174">Доступно</tspan> </text> <text id="в" fill="#FFFFFF" font-family="Roboto-Regular, Roboto" font-size="110" font-weight="normal"> <tspan x="1068.26367" y="174">в</tspan> </text> </g> </g> </svg> 